<mxfile host="Electron" modified="2023-04-15T12:28:16.351Z" agent="Mozilla/5.0 (X11; Linux x86_64) AppleWebKit/537.36 (KHTML, like Gecko) draw.io/21.1.2 Chrome/106.0.5249.199 Electron/21.4.3 Safari/537.36" etag="JJWd4ySci63EANGFwWPv" version="21.1.2" type="device">
  <diagram name="Page-1" id="3OD4oy6CaCltADLQ0Blc">
    <mxGraphModel dx="1854" dy="887" grid="1" gridSize="10" guides="1" tooltips="1" connect="1" arrows="1" fold="1" page="1" pageScale="1" pageWidth="850" pageHeight="1100" math="0" shadow="0">
      <root>
        <mxCell id="0" />
        <mxCell id="1" parent="0" />
        <mxCell id="GKB3FV2w6lnIj9IGkRJ3-1" value="" style="rounded=0;whiteSpace=wrap;html=1;" parent="1" vertex="1">
          <mxGeometry x="-160" y="190" width="910" height="1330" as="geometry" />
        </mxCell>
        <mxCell id="-P09jz9MazROtthzIZ32-97" value="" style="verticalLabelPosition=bottom;verticalAlign=top;html=1;shape=mxgraph.basic.arc;startAngle=0.7467523907558127;endAngle=0.25;fontSize=14;" parent="1" vertex="1">
          <mxGeometry x="376.25" y="1045" width="17.5" height="20" as="geometry" />
        </mxCell>
        <mxCell id="-P09jz9MazROtthzIZ32-1" value="GP" style="rounded=0;whiteSpace=wrap;html=1;fontSize=14;" parent="1" vertex="1">
          <mxGeometry x="160" y="400" width="120" height="60" as="geometry" />
        </mxCell>
        <mxCell id="-P09jz9MazROtthzIZ32-2" value="GP_id" style="ellipse;whiteSpace=wrap;html=1;fontSize=14;" parent="1" vertex="1">
          <mxGeometry x="70" y="340" width="130" height="50" as="geometry" />
        </mxCell>
        <mxCell id="-P09jz9MazROtthzIZ32-4" value="season" style="ellipse;whiteSpace=wrap;html=1;fontSize=14;" parent="1" vertex="1">
          <mxGeometry x="70" y="280" width="130" height="50" as="geometry" />
        </mxCell>
        <mxCell id="-P09jz9MazROtthzIZ32-5" value="date" style="ellipse;whiteSpace=wrap;html=1;fontSize=14;" parent="1" vertex="1">
          <mxGeometry x="70" y="220" width="130" height="50" as="geometry" />
        </mxCell>
        <mxCell id="-P09jz9MazROtthzIZ32-6" value="month" style="ellipse;whiteSpace=wrap;html=1;fontSize=14;" parent="1" vertex="1">
          <mxGeometry x="240" y="220" width="130" height="50" as="geometry" />
        </mxCell>
        <mxCell id="-P09jz9MazROtthzIZ32-7" value="place" style="ellipse;whiteSpace=wrap;html=1;fontSize=14;" parent="1" vertex="1">
          <mxGeometry x="240" y="280" width="130" height="50" as="geometry" />
        </mxCell>
        <mxCell id="-P09jz9MazROtthzIZ32-8" value="track_id" style="ellipse;whiteSpace=wrap;html=1;fontSize=14;" parent="1" vertex="1">
          <mxGeometry x="240" y="340" width="130" height="50" as="geometry" />
        </mxCell>
        <mxCell id="-P09jz9MazROtthzIZ32-9" value="" style="endArrow=none;html=1;rounded=0;fontSize=14;entryX=1;entryY=0.5;entryDx=0;entryDy=0;exitX=0.5;exitY=0;exitDx=0;exitDy=0;edgeStyle=orthogonalEdgeStyle;" parent="1" source="-P09jz9MazROtthzIZ32-1" target="-P09jz9MazROtthzIZ32-5" edge="1">
          <mxGeometry width="50" height="50" relative="1" as="geometry">
            <mxPoint x="200" y="460" as="sourcePoint" />
            <mxPoint x="250" y="410" as="targetPoint" />
          </mxGeometry>
        </mxCell>
        <mxCell id="-P09jz9MazROtthzIZ32-10" value="" style="endArrow=none;html=1;rounded=0;fontSize=14;entryX=0;entryY=0.5;entryDx=0;entryDy=0;exitX=0.5;exitY=0;exitDx=0;exitDy=0;edgeStyle=orthogonalEdgeStyle;" parent="1" source="-P09jz9MazROtthzIZ32-1" target="-P09jz9MazROtthzIZ32-6" edge="1">
          <mxGeometry width="50" height="50" relative="1" as="geometry">
            <mxPoint x="230" y="410" as="sourcePoint" />
            <mxPoint x="210" y="255" as="targetPoint" />
          </mxGeometry>
        </mxCell>
        <mxCell id="-P09jz9MazROtthzIZ32-11" value="" style="endArrow=none;html=1;rounded=0;fontSize=14;entryX=0;entryY=0.5;entryDx=0;entryDy=0;exitX=0.5;exitY=0;exitDx=0;exitDy=0;edgeStyle=orthogonalEdgeStyle;" parent="1" source="-P09jz9MazROtthzIZ32-1" target="-P09jz9MazROtthzIZ32-7" edge="1">
          <mxGeometry width="50" height="50" relative="1" as="geometry">
            <mxPoint x="230" y="410" as="sourcePoint" />
            <mxPoint x="250" y="255" as="targetPoint" />
          </mxGeometry>
        </mxCell>
        <mxCell id="-P09jz9MazROtthzIZ32-12" value="" style="endArrow=none;html=1;rounded=0;fontSize=14;entryX=1;entryY=0.5;entryDx=0;entryDy=0;exitX=0.5;exitY=0;exitDx=0;exitDy=0;edgeStyle=orthogonalEdgeStyle;" parent="1" source="-P09jz9MazROtthzIZ32-1" target="-P09jz9MazROtthzIZ32-4" edge="1">
          <mxGeometry width="50" height="50" relative="1" as="geometry">
            <mxPoint x="230" y="410" as="sourcePoint" />
            <mxPoint x="250" y="255" as="targetPoint" />
          </mxGeometry>
        </mxCell>
        <mxCell id="-P09jz9MazROtthzIZ32-13" value="" style="endArrow=none;html=1;rounded=0;fontSize=14;entryX=1;entryY=0.5;entryDx=0;entryDy=0;exitX=0.5;exitY=0;exitDx=0;exitDy=0;edgeStyle=orthogonalEdgeStyle;" parent="1" source="-P09jz9MazROtthzIZ32-1" target="-P09jz9MazROtthzIZ32-2" edge="1">
          <mxGeometry width="50" height="50" relative="1" as="geometry">
            <mxPoint x="230" y="410" as="sourcePoint" />
            <mxPoint x="210" y="315" as="targetPoint" />
          </mxGeometry>
        </mxCell>
        <mxCell id="-P09jz9MazROtthzIZ32-14" value="" style="endArrow=none;html=1;rounded=0;fontSize=14;entryX=0;entryY=0.5;entryDx=0;entryDy=0;exitX=0.5;exitY=0;exitDx=0;exitDy=0;edgeStyle=orthogonalEdgeStyle;" parent="1" source="-P09jz9MazROtthzIZ32-1" target="-P09jz9MazROtthzIZ32-8" edge="1">
          <mxGeometry width="50" height="50" relative="1" as="geometry">
            <mxPoint x="230" y="410" as="sourcePoint" />
            <mxPoint x="210" y="375" as="targetPoint" />
          </mxGeometry>
        </mxCell>
        <mxCell id="-P09jz9MazROtthzIZ32-16" value="qualification_results" style="rounded=0;whiteSpace=wrap;html=1;fontSize=14;" parent="1" vertex="1">
          <mxGeometry x="-10" y="630" width="140" height="60" as="geometry" />
        </mxCell>
        <mxCell id="-P09jz9MazROtthzIZ32-17" value="q1_time" style="ellipse;whiteSpace=wrap;html=1;fontSize=14;" parent="1" vertex="1">
          <mxGeometry x="-90" y="820" width="130" height="50" as="geometry" />
        </mxCell>
        <mxCell id="-P09jz9MazROtthzIZ32-18" value="driver_id" style="ellipse;whiteSpace=wrap;html=1;fontSize=14;" parent="1" vertex="1">
          <mxGeometry x="-90" y="760" width="130" height="50" as="geometry" />
        </mxCell>
        <mxCell id="-P09jz9MazROtthzIZ32-19" value="qual_id" style="ellipse;whiteSpace=wrap;html=1;fontSize=14;" parent="1" vertex="1">
          <mxGeometry x="-90" y="700" width="130" height="50" as="geometry" />
        </mxCell>
        <mxCell id="-P09jz9MazROtthzIZ32-20" value="GP_id" style="ellipse;whiteSpace=wrap;html=1;fontSize=14;" parent="1" vertex="1">
          <mxGeometry x="80" y="700" width="130" height="50" as="geometry" />
        </mxCell>
        <mxCell id="-P09jz9MazROtthzIZ32-21" value="team_id" style="ellipse;whiteSpace=wrap;html=1;fontSize=14;" parent="1" vertex="1">
          <mxGeometry x="80" y="760" width="130" height="50" as="geometry" />
        </mxCell>
        <mxCell id="-P09jz9MazROtthzIZ32-22" value="q2_time" style="ellipse;whiteSpace=wrap;html=1;fontSize=14;" parent="1" vertex="1">
          <mxGeometry x="80" y="820" width="130" height="50" as="geometry" />
        </mxCell>
        <mxCell id="-P09jz9MazROtthzIZ32-23" value="" style="endArrow=none;html=1;rounded=0;fontSize=14;entryX=1;entryY=0.5;entryDx=0;entryDy=0;exitX=0.5;exitY=1;exitDx=0;exitDy=0;edgeStyle=orthogonalEdgeStyle;" parent="1" source="-P09jz9MazROtthzIZ32-16" target="-P09jz9MazROtthzIZ32-19" edge="1">
          <mxGeometry width="50" height="50" relative="1" as="geometry">
            <mxPoint x="60" y="920" as="sourcePoint" />
            <mxPoint x="90" y="930" as="targetPoint" />
          </mxGeometry>
        </mxCell>
        <mxCell id="-P09jz9MazROtthzIZ32-24" value="" style="endArrow=none;html=1;rounded=0;fontSize=14;entryX=0;entryY=0.5;entryDx=0;entryDy=0;exitX=0.5;exitY=1;exitDx=0;exitDy=0;edgeStyle=orthogonalEdgeStyle;" parent="1" source="-P09jz9MazROtthzIZ32-16" target="-P09jz9MazROtthzIZ32-20" edge="1">
          <mxGeometry width="50" height="50" relative="1" as="geometry">
            <mxPoint x="60" y="920" as="sourcePoint" />
            <mxPoint x="50" y="775" as="targetPoint" />
          </mxGeometry>
        </mxCell>
        <mxCell id="-P09jz9MazROtthzIZ32-25" value="" style="endArrow=none;html=1;rounded=0;fontSize=14;entryX=0;entryY=0.5;entryDx=0;entryDy=0;exitX=0.5;exitY=1;exitDx=0;exitDy=0;edgeStyle=orthogonalEdgeStyle;" parent="1" source="-P09jz9MazROtthzIZ32-16" target="-P09jz9MazROtthzIZ32-21" edge="1">
          <mxGeometry width="50" height="50" relative="1" as="geometry">
            <mxPoint x="60" y="920" as="sourcePoint" />
            <mxPoint x="90" y="775" as="targetPoint" />
          </mxGeometry>
        </mxCell>
        <mxCell id="-P09jz9MazROtthzIZ32-26" value="" style="endArrow=none;html=1;rounded=0;fontSize=14;entryX=1;entryY=0.5;entryDx=0;entryDy=0;exitX=0.5;exitY=1;exitDx=0;exitDy=0;edgeStyle=orthogonalEdgeStyle;" parent="1" source="-P09jz9MazROtthzIZ32-16" target="-P09jz9MazROtthzIZ32-18" edge="1">
          <mxGeometry width="50" height="50" relative="1" as="geometry">
            <mxPoint x="60" y="920" as="sourcePoint" />
            <mxPoint x="90" y="775" as="targetPoint" />
          </mxGeometry>
        </mxCell>
        <mxCell id="-P09jz9MazROtthzIZ32-27" value="" style="endArrow=none;html=1;rounded=0;fontSize=14;entryX=1;entryY=0.5;entryDx=0;entryDy=0;exitX=0.5;exitY=1;exitDx=0;exitDy=0;edgeStyle=orthogonalEdgeStyle;" parent="1" source="-P09jz9MazROtthzIZ32-16" target="-P09jz9MazROtthzIZ32-17" edge="1">
          <mxGeometry width="50" height="50" relative="1" as="geometry">
            <mxPoint x="60" y="920" as="sourcePoint" />
            <mxPoint x="50" y="835" as="targetPoint" />
          </mxGeometry>
        </mxCell>
        <mxCell id="-P09jz9MazROtthzIZ32-28" value="" style="endArrow=none;html=1;rounded=0;fontSize=14;entryX=0;entryY=0.5;entryDx=0;entryDy=0;exitX=0.5;exitY=1;exitDx=0;exitDy=0;edgeStyle=orthogonalEdgeStyle;" parent="1" source="-P09jz9MazROtthzIZ32-16" target="-P09jz9MazROtthzIZ32-22" edge="1">
          <mxGeometry width="50" height="50" relative="1" as="geometry">
            <mxPoint x="60" y="920" as="sourcePoint" />
            <mxPoint x="50" y="895" as="targetPoint" />
          </mxGeometry>
        </mxCell>
        <mxCell id="-P09jz9MazROtthzIZ32-29" value="q3_time" style="ellipse;whiteSpace=wrap;html=1;fontSize=14;" parent="1" vertex="1">
          <mxGeometry x="80" y="880" width="130" height="50" as="geometry" />
        </mxCell>
        <mxCell id="-P09jz9MazROtthzIZ32-30" value="" style="endArrow=none;html=1;rounded=0;fontSize=14;entryX=0;entryY=0.5;entryDx=0;entryDy=0;exitX=0.5;exitY=1;exitDx=0;exitDy=0;edgeStyle=orthogonalEdgeStyle;" parent="1" source="-P09jz9MazROtthzIZ32-16" target="-P09jz9MazROtthzIZ32-29" edge="1">
          <mxGeometry width="50" height="50" relative="1" as="geometry">
            <mxPoint x="70" y="700" as="sourcePoint" />
            <mxPoint x="90" y="855" as="targetPoint" />
          </mxGeometry>
        </mxCell>
        <mxCell id="-P09jz9MazROtthzIZ32-31" value="race_results" style="rounded=0;whiteSpace=wrap;html=1;fontSize=14;" parent="1" vertex="1">
          <mxGeometry x="320" y="630" width="120" height="60" as="geometry" />
        </mxCell>
        <mxCell id="-P09jz9MazROtthzIZ32-32" value="result" style="ellipse;whiteSpace=wrap;html=1;fontSize=14;" parent="1" vertex="1">
          <mxGeometry x="230" y="820" width="130" height="50" as="geometry" />
        </mxCell>
        <mxCell id="-P09jz9MazROtthzIZ32-33" value="driver_id" style="ellipse;whiteSpace=wrap;html=1;fontSize=14;" parent="1" vertex="1">
          <mxGeometry x="230" y="760" width="130" height="50" as="geometry" />
        </mxCell>
        <mxCell id="-P09jz9MazROtthzIZ32-34" value="race_id" style="ellipse;whiteSpace=wrap;html=1;fontSize=14;" parent="1" vertex="1">
          <mxGeometry x="230" y="700" width="130" height="50" as="geometry" />
        </mxCell>
        <mxCell id="-P09jz9MazROtthzIZ32-35" value="GP_id" style="ellipse;whiteSpace=wrap;html=1;fontSize=14;" parent="1" vertex="1">
          <mxGeometry x="400" y="700" width="130" height="50" as="geometry" />
        </mxCell>
        <mxCell id="-P09jz9MazROtthzIZ32-36" value="team_id" style="ellipse;whiteSpace=wrap;html=1;fontSize=14;" parent="1" vertex="1">
          <mxGeometry x="400" y="760" width="130" height="50" as="geometry" />
        </mxCell>
        <mxCell id="-P09jz9MazROtthzIZ32-38" value="" style="endArrow=none;html=1;rounded=0;fontSize=14;entryX=1;entryY=0.5;entryDx=0;entryDy=0;exitX=0.5;exitY=1;exitDx=0;exitDy=0;edgeStyle=orthogonalEdgeStyle;" parent="1" source="-P09jz9MazROtthzIZ32-31" target="-P09jz9MazROtthzIZ32-34" edge="1">
          <mxGeometry width="50" height="50" relative="1" as="geometry">
            <mxPoint x="380" y="920" as="sourcePoint" />
            <mxPoint x="410" y="930" as="targetPoint" />
          </mxGeometry>
        </mxCell>
        <mxCell id="-P09jz9MazROtthzIZ32-39" value="" style="endArrow=none;html=1;rounded=0;fontSize=14;entryX=0;entryY=0.5;entryDx=0;entryDy=0;exitX=0.5;exitY=1;exitDx=0;exitDy=0;edgeStyle=orthogonalEdgeStyle;" parent="1" source="-P09jz9MazROtthzIZ32-31" target="-P09jz9MazROtthzIZ32-35" edge="1">
          <mxGeometry width="50" height="50" relative="1" as="geometry">
            <mxPoint x="380" y="920" as="sourcePoint" />
            <mxPoint x="370" y="775" as="targetPoint" />
          </mxGeometry>
        </mxCell>
        <mxCell id="-P09jz9MazROtthzIZ32-40" value="" style="endArrow=none;html=1;rounded=0;fontSize=14;entryX=0;entryY=0.5;entryDx=0;entryDy=0;exitX=0.5;exitY=1;exitDx=0;exitDy=0;edgeStyle=orthogonalEdgeStyle;" parent="1" source="-P09jz9MazROtthzIZ32-31" target="-P09jz9MazROtthzIZ32-36" edge="1">
          <mxGeometry width="50" height="50" relative="1" as="geometry">
            <mxPoint x="380" y="920" as="sourcePoint" />
            <mxPoint x="410" y="775" as="targetPoint" />
          </mxGeometry>
        </mxCell>
        <mxCell id="-P09jz9MazROtthzIZ32-41" value="" style="endArrow=none;html=1;rounded=0;fontSize=14;entryX=1;entryY=0.5;entryDx=0;entryDy=0;exitX=0.5;exitY=1;exitDx=0;exitDy=0;edgeStyle=orthogonalEdgeStyle;" parent="1" source="-P09jz9MazROtthzIZ32-31" target="-P09jz9MazROtthzIZ32-33" edge="1">
          <mxGeometry width="50" height="50" relative="1" as="geometry">
            <mxPoint x="380" y="920" as="sourcePoint" />
            <mxPoint x="410" y="775" as="targetPoint" />
          </mxGeometry>
        </mxCell>
        <mxCell id="-P09jz9MazROtthzIZ32-42" value="" style="endArrow=none;html=1;rounded=0;fontSize=14;entryX=1;entryY=0.5;entryDx=0;entryDy=0;exitX=0.5;exitY=1;exitDx=0;exitDy=0;edgeStyle=orthogonalEdgeStyle;" parent="1" source="-P09jz9MazROtthzIZ32-31" target="-P09jz9MazROtthzIZ32-32" edge="1">
          <mxGeometry width="50" height="50" relative="1" as="geometry">
            <mxPoint x="380" y="920" as="sourcePoint" />
            <mxPoint x="370" y="835" as="targetPoint" />
          </mxGeometry>
        </mxCell>
        <mxCell id="-P09jz9MazROtthzIZ32-44" value="has" style="rhombus;whiteSpace=wrap;html=1;fontSize=14;" parent="1" vertex="1">
          <mxGeometry x="80" y="520" width="110" height="50" as="geometry" />
        </mxCell>
        <mxCell id="-P09jz9MazROtthzIZ32-45" value="has" style="rhombus;whiteSpace=wrap;html=1;fontSize=14;" parent="1" vertex="1">
          <mxGeometry x="250" y="520" width="110" height="50" as="geometry" />
        </mxCell>
        <mxCell id="-P09jz9MazROtthzIZ32-46" value="" style="edgeStyle=orthogonalEdgeStyle;fontSize=12;html=1;endArrow=ERmany;rounded=0;exitX=0;exitY=0.5;exitDx=0;exitDy=0;entryX=0.5;entryY=0;entryDx=0;entryDy=0;" parent="1" source="-P09jz9MazROtthzIZ32-44" target="-P09jz9MazROtthzIZ32-16" edge="1">
          <mxGeometry width="100" height="100" relative="1" as="geometry">
            <mxPoint x="140" y="650" as="sourcePoint" />
            <mxPoint x="240" y="550" as="targetPoint" />
          </mxGeometry>
        </mxCell>
        <mxCell id="-P09jz9MazROtthzIZ32-47" value="" style="endArrow=none;html=1;rounded=0;fontSize=14;entryX=1;entryY=0.5;entryDx=0;entryDy=0;exitX=0.5;exitY=1;exitDx=0;exitDy=0;edgeStyle=orthogonalEdgeStyle;" parent="1" source="-P09jz9MazROtthzIZ32-1" target="-P09jz9MazROtthzIZ32-44" edge="1">
          <mxGeometry width="50" height="50" relative="1" as="geometry">
            <mxPoint x="70" y="700" as="sourcePoint" />
            <mxPoint x="50" y="735" as="targetPoint" />
          </mxGeometry>
        </mxCell>
        <mxCell id="-P09jz9MazROtthzIZ32-48" value="" style="endArrow=none;html=1;rounded=0;fontSize=14;entryX=0;entryY=0.5;entryDx=0;entryDy=0;exitX=0.5;exitY=1;exitDx=0;exitDy=0;edgeStyle=orthogonalEdgeStyle;" parent="1" source="-P09jz9MazROtthzIZ32-1" target="-P09jz9MazROtthzIZ32-45" edge="1">
          <mxGeometry width="50" height="50" relative="1" as="geometry">
            <mxPoint x="230" y="470" as="sourcePoint" />
            <mxPoint x="200" y="555" as="targetPoint" />
          </mxGeometry>
        </mxCell>
        <mxCell id="-P09jz9MazROtthzIZ32-49" value="" style="edgeStyle=orthogonalEdgeStyle;fontSize=12;html=1;endArrow=ERmany;rounded=0;exitX=1;exitY=0.5;exitDx=0;exitDy=0;entryX=0.5;entryY=0;entryDx=0;entryDy=0;" parent="1" source="-P09jz9MazROtthzIZ32-45" target="-P09jz9MazROtthzIZ32-31" edge="1">
          <mxGeometry width="100" height="100" relative="1" as="geometry">
            <mxPoint x="90" y="555" as="sourcePoint" />
            <mxPoint x="70" y="640" as="targetPoint" />
          </mxGeometry>
        </mxCell>
        <mxCell id="-P09jz9MazROtthzIZ32-50" value="tracks" style="rounded=0;whiteSpace=wrap;html=1;fontSize=14;" parent="1" vertex="1">
          <mxGeometry x="500" y="400" width="120" height="60" as="geometry" />
        </mxCell>
        <mxCell id="-P09jz9MazROtthzIZ32-51" value="track_id" style="ellipse;whiteSpace=wrap;html=1;fontSize=14;" parent="1" vertex="1">
          <mxGeometry x="410" y="340" width="130" height="50" as="geometry" />
        </mxCell>
        <mxCell id="-P09jz9MazROtthzIZ32-52" value="city" style="ellipse;whiteSpace=wrap;html=1;fontSize=14;" parent="1" vertex="1">
          <mxGeometry x="410" y="280" width="130" height="50" as="geometry" />
        </mxCell>
        <mxCell id="-P09jz9MazROtthzIZ32-55" value="country" style="ellipse;whiteSpace=wrap;html=1;fontSize=14;" parent="1" vertex="1">
          <mxGeometry x="580" y="280" width="130" height="50" as="geometry" />
        </mxCell>
        <mxCell id="-P09jz9MazROtthzIZ32-56" value="track_name" style="ellipse;whiteSpace=wrap;html=1;fontSize=14;" parent="1" vertex="1">
          <mxGeometry x="580" y="340" width="130" height="50" as="geometry" />
        </mxCell>
        <mxCell id="-P09jz9MazROtthzIZ32-59" value="" style="endArrow=none;html=1;rounded=0;fontSize=14;entryX=0;entryY=0.5;entryDx=0;entryDy=0;exitX=0.5;exitY=0;exitDx=0;exitDy=0;edgeStyle=orthogonalEdgeStyle;" parent="1" source="-P09jz9MazROtthzIZ32-50" target="-P09jz9MazROtthzIZ32-55" edge="1">
          <mxGeometry width="50" height="50" relative="1" as="geometry">
            <mxPoint x="570" y="410" as="sourcePoint" />
            <mxPoint x="590" y="255" as="targetPoint" />
          </mxGeometry>
        </mxCell>
        <mxCell id="-P09jz9MazROtthzIZ32-60" value="" style="endArrow=none;html=1;rounded=0;fontSize=14;entryX=1;entryY=0.5;entryDx=0;entryDy=0;exitX=0.5;exitY=0;exitDx=0;exitDy=0;edgeStyle=orthogonalEdgeStyle;" parent="1" source="-P09jz9MazROtthzIZ32-50" target="-P09jz9MazROtthzIZ32-52" edge="1">
          <mxGeometry width="50" height="50" relative="1" as="geometry">
            <mxPoint x="570" y="410" as="sourcePoint" />
            <mxPoint x="590" y="255" as="targetPoint" />
          </mxGeometry>
        </mxCell>
        <mxCell id="-P09jz9MazROtthzIZ32-61" value="" style="endArrow=none;html=1;rounded=0;fontSize=14;entryX=1;entryY=0.5;entryDx=0;entryDy=0;exitX=0.5;exitY=0;exitDx=0;exitDy=0;edgeStyle=orthogonalEdgeStyle;" parent="1" source="-P09jz9MazROtthzIZ32-50" target="-P09jz9MazROtthzIZ32-51" edge="1">
          <mxGeometry width="50" height="50" relative="1" as="geometry">
            <mxPoint x="570" y="410" as="sourcePoint" />
            <mxPoint x="550" y="315" as="targetPoint" />
          </mxGeometry>
        </mxCell>
        <mxCell id="-P09jz9MazROtthzIZ32-62" value="" style="endArrow=none;html=1;rounded=0;fontSize=14;entryX=0;entryY=0.5;entryDx=0;entryDy=0;exitX=0.5;exitY=0;exitDx=0;exitDy=0;edgeStyle=orthogonalEdgeStyle;" parent="1" source="-P09jz9MazROtthzIZ32-50" target="-P09jz9MazROtthzIZ32-56" edge="1">
          <mxGeometry width="50" height="50" relative="1" as="geometry">
            <mxPoint x="570" y="410" as="sourcePoint" />
            <mxPoint x="550" y="375" as="targetPoint" />
          </mxGeometry>
        </mxCell>
        <mxCell id="-P09jz9MazROtthzIZ32-63" value="is held on" style="rhombus;whiteSpace=wrap;html=1;fontSize=14;" parent="1" vertex="1">
          <mxGeometry x="340" y="405" width="110" height="50" as="geometry" />
        </mxCell>
        <mxCell id="-P09jz9MazROtthzIZ32-64" value="" style="endArrow=none;html=1;rounded=0;fontSize=14;entryX=0;entryY=0.5;entryDx=0;entryDy=0;exitX=1;exitY=0.5;exitDx=0;exitDy=0;edgeStyle=orthogonalEdgeStyle;" parent="1" source="-P09jz9MazROtthzIZ32-1" target="-P09jz9MazROtthzIZ32-63" edge="1">
          <mxGeometry width="50" height="50" relative="1" as="geometry">
            <mxPoint x="230" y="470" as="sourcePoint" />
            <mxPoint x="260" y="555" as="targetPoint" />
          </mxGeometry>
        </mxCell>
        <mxCell id="-P09jz9MazROtthzIZ32-65" value="" style="endArrow=none;html=1;rounded=0;fontSize=14;entryX=1;entryY=0.5;entryDx=0;entryDy=0;exitX=0;exitY=0.5;exitDx=0;exitDy=0;edgeStyle=orthogonalEdgeStyle;" parent="1" source="-P09jz9MazROtthzIZ32-50" target="-P09jz9MazROtthzIZ32-63" edge="1">
          <mxGeometry width="50" height="50" relative="1" as="geometry">
            <mxPoint x="290" y="440" as="sourcePoint" />
            <mxPoint x="350" y="440" as="targetPoint" />
          </mxGeometry>
        </mxCell>
        <mxCell id="-P09jz9MazROtthzIZ32-66" value="drivers" style="rounded=0;whiteSpace=wrap;html=1;fontSize=14;" parent="1" vertex="1">
          <mxGeometry x="325" y="1100" width="120" height="60" as="geometry" />
        </mxCell>
        <mxCell id="-P09jz9MazROtthzIZ32-68" value="birth_date" style="ellipse;whiteSpace=wrap;html=1;fontSize=14;" parent="1" vertex="1">
          <mxGeometry x="235" y="1230" width="130" height="50" as="geometry" />
        </mxCell>
        <mxCell id="-P09jz9MazROtthzIZ32-69" value="driver_id" style="ellipse;whiteSpace=wrap;html=1;fontSize=14;" parent="1" vertex="1">
          <mxGeometry x="235" y="1170" width="130" height="50" as="geometry" />
        </mxCell>
        <mxCell id="-P09jz9MazROtthzIZ32-70" value="name" style="ellipse;whiteSpace=wrap;html=1;fontSize=14;" parent="1" vertex="1">
          <mxGeometry x="405" y="1170" width="130" height="50" as="geometry" />
        </mxCell>
        <mxCell id="-P09jz9MazROtthzIZ32-71" value="country" style="ellipse;whiteSpace=wrap;html=1;fontSize=14;" parent="1" vertex="1">
          <mxGeometry x="405" y="1230" width="130" height="50" as="geometry" />
        </mxCell>
        <mxCell id="-P09jz9MazROtthzIZ32-72" value="" style="endArrow=none;html=1;rounded=0;fontSize=14;entryX=1;entryY=0.5;entryDx=0;entryDy=0;exitX=0.5;exitY=1;exitDx=0;exitDy=0;edgeStyle=orthogonalEdgeStyle;" parent="1" source="-P09jz9MazROtthzIZ32-66" target="-P09jz9MazROtthzIZ32-69" edge="1">
          <mxGeometry width="50" height="50" relative="1" as="geometry">
            <mxPoint x="385" y="1390" as="sourcePoint" />
            <mxPoint x="415" y="1400" as="targetPoint" />
          </mxGeometry>
        </mxCell>
        <mxCell id="-P09jz9MazROtthzIZ32-73" value="" style="endArrow=none;html=1;rounded=0;fontSize=14;entryX=0;entryY=0.5;entryDx=0;entryDy=0;exitX=0.5;exitY=1;exitDx=0;exitDy=0;edgeStyle=orthogonalEdgeStyle;" parent="1" source="-P09jz9MazROtthzIZ32-66" target="-P09jz9MazROtthzIZ32-70" edge="1">
          <mxGeometry width="50" height="50" relative="1" as="geometry">
            <mxPoint x="385" y="1390" as="sourcePoint" />
            <mxPoint x="375" y="1245" as="targetPoint" />
          </mxGeometry>
        </mxCell>
        <mxCell id="-P09jz9MazROtthzIZ32-74" value="" style="endArrow=none;html=1;rounded=0;fontSize=14;entryX=0;entryY=0.5;entryDx=0;entryDy=0;exitX=0.5;exitY=1;exitDx=0;exitDy=0;edgeStyle=orthogonalEdgeStyle;" parent="1" source="-P09jz9MazROtthzIZ32-66" target="-P09jz9MazROtthzIZ32-71" edge="1">
          <mxGeometry width="50" height="50" relative="1" as="geometry">
            <mxPoint x="385" y="1390" as="sourcePoint" />
            <mxPoint x="415" y="1245" as="targetPoint" />
          </mxGeometry>
        </mxCell>
        <mxCell id="-P09jz9MazROtthzIZ32-75" value="" style="endArrow=none;html=1;rounded=0;fontSize=14;entryX=1;entryY=0.5;entryDx=0;entryDy=0;exitX=0.5;exitY=1;exitDx=0;exitDy=0;edgeStyle=orthogonalEdgeStyle;" parent="1" source="-P09jz9MazROtthzIZ32-66" target="-P09jz9MazROtthzIZ32-68" edge="1">
          <mxGeometry width="50" height="50" relative="1" as="geometry">
            <mxPoint x="385" y="1390" as="sourcePoint" />
            <mxPoint x="415" y="1245" as="targetPoint" />
          </mxGeometry>
        </mxCell>
        <mxCell id="-P09jz9MazROtthzIZ32-77" value="teams" style="rounded=0;whiteSpace=wrap;html=1;fontSize=14;" parent="1" vertex="1">
          <mxGeometry x="-5" y="1100" width="120" height="60" as="geometry" />
        </mxCell>
        <mxCell id="-P09jz9MazROtthzIZ32-78" value="base" style="ellipse;whiteSpace=wrap;html=1;fontSize=14;" parent="1" vertex="1">
          <mxGeometry x="-95" y="1230" width="130" height="50" as="geometry" />
        </mxCell>
        <mxCell id="-P09jz9MazROtthzIZ32-79" value="team_id" style="ellipse;whiteSpace=wrap;html=1;fontSize=14;" parent="1" vertex="1">
          <mxGeometry x="-95" y="1170" width="130" height="50" as="geometry" />
        </mxCell>
        <mxCell id="-P09jz9MazROtthzIZ32-80" value="name" style="ellipse;whiteSpace=wrap;html=1;fontSize=14;" parent="1" vertex="1">
          <mxGeometry x="75" y="1170" width="130" height="50" as="geometry" />
        </mxCell>
        <mxCell id="-P09jz9MazROtthzIZ32-82" value="" style="endArrow=none;html=1;rounded=0;fontSize=14;entryX=1;entryY=0.5;entryDx=0;entryDy=0;exitX=0.5;exitY=1;exitDx=0;exitDy=0;edgeStyle=orthogonalEdgeStyle;" parent="1" source="-P09jz9MazROtthzIZ32-77" target="-P09jz9MazROtthzIZ32-79" edge="1">
          <mxGeometry width="50" height="50" relative="1" as="geometry">
            <mxPoint x="55" y="1390" as="sourcePoint" />
            <mxPoint x="85" y="1400" as="targetPoint" />
          </mxGeometry>
        </mxCell>
        <mxCell id="-P09jz9MazROtthzIZ32-83" value="" style="endArrow=none;html=1;rounded=0;fontSize=14;entryX=0;entryY=0.5;entryDx=0;entryDy=0;exitX=0.5;exitY=1;exitDx=0;exitDy=0;edgeStyle=orthogonalEdgeStyle;" parent="1" source="-P09jz9MazROtthzIZ32-77" target="-P09jz9MazROtthzIZ32-80" edge="1">
          <mxGeometry width="50" height="50" relative="1" as="geometry">
            <mxPoint x="55" y="1390" as="sourcePoint" />
            <mxPoint x="45" y="1245" as="targetPoint" />
          </mxGeometry>
        </mxCell>
        <mxCell id="-P09jz9MazROtthzIZ32-85" value="" style="endArrow=none;html=1;rounded=0;fontSize=14;entryX=1;entryY=0.5;entryDx=0;entryDy=0;exitX=0.5;exitY=1;exitDx=0;exitDy=0;edgeStyle=orthogonalEdgeStyle;" parent="1" source="-P09jz9MazROtthzIZ32-77" target="-P09jz9MazROtthzIZ32-78" edge="1">
          <mxGeometry width="50" height="50" relative="1" as="geometry">
            <mxPoint x="55" y="1390" as="sourcePoint" />
            <mxPoint x="85" y="1245" as="targetPoint" />
          </mxGeometry>
        </mxCell>
        <mxCell id="-P09jz9MazROtthzIZ32-86" value="is in" style="rhombus;whiteSpace=wrap;html=1;fontSize=14;" parent="1" vertex="1">
          <mxGeometry x="165" y="1105" width="110" height="50" as="geometry" />
        </mxCell>
        <mxCell id="-P09jz9MazROtthzIZ32-87" value="" style="edgeStyle=orthogonalEdgeStyle;fontSize=12;html=1;endArrow=ERmany;rounded=0;exitX=0;exitY=0.5;exitDx=0;exitDy=0;entryX=1;entryY=0.5;entryDx=0;entryDy=0;" parent="1" source="-P09jz9MazROtthzIZ32-86" target="-P09jz9MazROtthzIZ32-77" edge="1">
          <mxGeometry width="100" height="100" relative="1" as="geometry">
            <mxPoint x="95" y="685" as="sourcePoint" />
            <mxPoint x="75" y="770" as="targetPoint" />
          </mxGeometry>
        </mxCell>
        <mxCell id="-P09jz9MazROtthzIZ32-88" value="" style="edgeStyle=orthogonalEdgeStyle;fontSize=12;html=1;endArrow=ERmany;rounded=0;exitX=1;exitY=0.5;exitDx=0;exitDy=0;entryX=0;entryY=0.5;entryDx=0;entryDy=0;" parent="1" source="-P09jz9MazROtthzIZ32-86" target="-P09jz9MazROtthzIZ32-66" edge="1">
          <mxGeometry width="100" height="100" relative="1" as="geometry">
            <mxPoint x="175" y="1140" as="sourcePoint" />
            <mxPoint x="125" y="1140" as="targetPoint" />
          </mxGeometry>
        </mxCell>
        <mxCell id="-P09jz9MazROtthzIZ32-89" value="has" style="rhombus;whiteSpace=wrap;html=1;fontSize=14;" parent="1" vertex="1">
          <mxGeometry y="1030" width="110" height="50" as="geometry" />
        </mxCell>
        <mxCell id="-P09jz9MazROtthzIZ32-90" value="has" style="rhombus;whiteSpace=wrap;html=1;fontSize=14;" parent="1" vertex="1">
          <mxGeometry x="330" y="990" width="110" height="50" as="geometry" />
        </mxCell>
        <mxCell id="-P09jz9MazROtthzIZ32-91" value="" style="endArrow=none;html=1;rounded=0;fontSize=14;entryX=0.5;entryY=0;entryDx=0;entryDy=0;exitX=0.5;exitY=1;exitDx=0;exitDy=0;edgeStyle=orthogonalEdgeStyle;" parent="1" source="-P09jz9MazROtthzIZ32-89" target="-P09jz9MazROtthzIZ32-77" edge="1">
          <mxGeometry width="50" height="50" relative="1" as="geometry">
            <mxPoint x="70" y="700" as="sourcePoint" />
            <mxPoint x="90" y="915" as="targetPoint" />
          </mxGeometry>
        </mxCell>
        <mxCell id="-P09jz9MazROtthzIZ32-92" value="" style="endArrow=none;html=1;rounded=0;fontSize=14;entryX=0.5;entryY=0;entryDx=0;entryDy=0;exitX=0.497;exitY=0.01;exitDx=0;exitDy=0;startArrow=none;exitPerimeter=0;" parent="1" source="-P09jz9MazROtthzIZ32-97" target="-P09jz9MazROtthzIZ32-66" edge="1">
          <mxGeometry width="50" height="50" relative="1" as="geometry">
            <mxPoint x="65" y="1090" as="sourcePoint" />
            <mxPoint x="65" y="1110" as="targetPoint" />
          </mxGeometry>
        </mxCell>
        <mxCell id="-P09jz9MazROtthzIZ32-93" value="" style="endArrow=none;html=1;rounded=0;fontSize=14;entryX=0;entryY=0.5;entryDx=0;entryDy=0;exitX=0;exitY=0.5;exitDx=0;exitDy=0;edgeStyle=orthogonalEdgeStyle;" parent="1" source="-P09jz9MazROtthzIZ32-89" target="-P09jz9MazROtthzIZ32-16" edge="1">
          <mxGeometry width="50" height="50" relative="1" as="geometry">
            <mxPoint x="65" y="1090" as="sourcePoint" />
            <mxPoint x="65" y="1110" as="targetPoint" />
            <Array as="points">
              <mxPoint x="-120" y="1055" />
              <mxPoint x="-120" y="660" />
            </Array>
          </mxGeometry>
        </mxCell>
        <mxCell id="-P09jz9MazROtthzIZ32-94" value="" style="endArrow=none;html=1;rounded=0;fontSize=14;entryX=0;entryY=0.75;entryDx=0;entryDy=0;exitX=0;exitY=0.5;exitDx=0;exitDy=0;edgeStyle=orthogonalEdgeStyle;" parent="1" source="-P09jz9MazROtthzIZ32-90" target="-P09jz9MazROtthzIZ32-16" edge="1">
          <mxGeometry width="50" height="50" relative="1" as="geometry">
            <mxPoint x="10" y="1065" as="sourcePoint" />
            <mxPoint y="670" as="targetPoint" />
            <Array as="points">
              <mxPoint x="-110" y="1015" />
              <mxPoint x="-110" y="670" />
              <mxPoint x="-10" y="670" />
            </Array>
          </mxGeometry>
        </mxCell>
        <mxCell id="-P09jz9MazROtthzIZ32-96" value="" style="endArrow=none;html=1;rounded=0;fontSize=14;exitX=1;exitY=0.75;exitDx=0;exitDy=0;edgeStyle=orthogonalEdgeStyle;entryX=1;entryY=0.5;entryDx=0;entryDy=0;" parent="1" source="-P09jz9MazROtthzIZ32-31" target="-P09jz9MazROtthzIZ32-90" edge="1">
          <mxGeometry width="50" height="50" relative="1" as="geometry">
            <mxPoint x="450" y="670" as="sourcePoint" />
            <mxPoint x="320" y="960" as="targetPoint" />
            <Array as="points">
              <mxPoint x="440" y="670" />
              <mxPoint x="580" y="670" />
              <mxPoint x="580" y="1015" />
            </Array>
          </mxGeometry>
        </mxCell>
        <mxCell id="-P09jz9MazROtthzIZ32-98" value="" style="endArrow=none;html=1;rounded=0;fontSize=14;entryX=0.5;entryY=0;entryDx=0;entryDy=0;exitX=0.5;exitY=1;exitDx=0;exitDy=0;edgeStyle=orthogonalEdgeStyle;" parent="1" source="-P09jz9MazROtthzIZ32-90" target="-P09jz9MazROtthzIZ32-97" edge="1">
          <mxGeometry width="50" height="50" relative="1" as="geometry">
            <mxPoint x="385" y="1040.0000000000002" as="sourcePoint" />
            <mxPoint x="385" y="1100.0000000000002" as="targetPoint" />
          </mxGeometry>
        </mxCell>
        <mxCell id="-P09jz9MazROtthzIZ32-99" value="" style="endArrow=none;html=1;rounded=0;fontSize=14;exitX=1;exitY=0.5;exitDx=0;exitDy=0;" parent="1" source="-P09jz9MazROtthzIZ32-89" target="-P09jz9MazROtthzIZ32-97" edge="1">
          <mxGeometry width="50" height="50" relative="1" as="geometry">
            <mxPoint x="240" y="1060" as="sourcePoint" />
            <mxPoint x="290" y="1010" as="targetPoint" />
          </mxGeometry>
        </mxCell>
        <mxCell id="-P09jz9MazROtthzIZ32-101" value="" style="endArrow=none;html=1;rounded=0;fontSize=14;exitX=1;exitY=0.5;exitDx=0;exitDy=0;edgeStyle=orthogonalEdgeStyle;entryX=0.998;entryY=0.483;entryDx=0;entryDy=0;entryPerimeter=0;" parent="1" source="-P09jz9MazROtthzIZ32-31" target="-P09jz9MazROtthzIZ32-97" edge="1">
          <mxGeometry width="50" height="50" relative="1" as="geometry">
            <mxPoint x="120" y="1065" as="sourcePoint" />
            <mxPoint x="400" y="1055" as="targetPoint" />
            <Array as="points">
              <mxPoint x="600" y="660" />
              <mxPoint x="600" y="1055" />
            </Array>
          </mxGeometry>
        </mxCell>
        <mxCell id="mEMXLL7tLX4JDlvwHve8-1" value="users" style="rounded=0;whiteSpace=wrap;html=1;fontSize=14;" vertex="1" parent="1">
          <mxGeometry x="-5" y="1320" width="120" height="60" as="geometry" />
        </mxCell>
        <mxCell id="mEMXLL7tLX4JDlvwHve8-2" value="password" style="ellipse;whiteSpace=wrap;html=1;fontSize=14;" vertex="1" parent="1">
          <mxGeometry x="-95" y="1450" width="130" height="50" as="geometry" />
        </mxCell>
        <mxCell id="mEMXLL7tLX4JDlvwHve8-3" value="user_id" style="ellipse;whiteSpace=wrap;html=1;fontSize=14;" vertex="1" parent="1">
          <mxGeometry x="-95" y="1390" width="130" height="50" as="geometry" />
        </mxCell>
        <mxCell id="mEMXLL7tLX4JDlvwHve8-4" value="login" style="ellipse;whiteSpace=wrap;html=1;fontSize=14;" vertex="1" parent="1">
          <mxGeometry x="75" y="1390" width="130" height="50" as="geometry" />
        </mxCell>
        <mxCell id="mEMXLL7tLX4JDlvwHve8-5" value="privilege_lvl" style="ellipse;whiteSpace=wrap;html=1;fontSize=14;" vertex="1" parent="1">
          <mxGeometry x="75" y="1450" width="130" height="50" as="geometry" />
        </mxCell>
        <mxCell id="mEMXLL7tLX4JDlvwHve8-6" value="" style="endArrow=none;html=1;rounded=0;fontSize=14;entryX=1;entryY=0.5;entryDx=0;entryDy=0;exitX=0.5;exitY=1;exitDx=0;exitDy=0;edgeStyle=orthogonalEdgeStyle;" edge="1" parent="1" source="mEMXLL7tLX4JDlvwHve8-1" target="mEMXLL7tLX4JDlvwHve8-3">
          <mxGeometry width="50" height="50" relative="1" as="geometry">
            <mxPoint x="55" y="1610" as="sourcePoint" />
            <mxPoint x="85" y="1620" as="targetPoint" />
          </mxGeometry>
        </mxCell>
        <mxCell id="mEMXLL7tLX4JDlvwHve8-7" value="" style="endArrow=none;html=1;rounded=0;fontSize=14;entryX=0;entryY=0.5;entryDx=0;entryDy=0;exitX=0.5;exitY=1;exitDx=0;exitDy=0;edgeStyle=orthogonalEdgeStyle;" edge="1" parent="1" source="mEMXLL7tLX4JDlvwHve8-1" target="mEMXLL7tLX4JDlvwHve8-4">
          <mxGeometry width="50" height="50" relative="1" as="geometry">
            <mxPoint x="55" y="1610" as="sourcePoint" />
            <mxPoint x="45" y="1465" as="targetPoint" />
          </mxGeometry>
        </mxCell>
        <mxCell id="mEMXLL7tLX4JDlvwHve8-8" value="" style="endArrow=none;html=1;rounded=0;fontSize=14;entryX=0;entryY=0.5;entryDx=0;entryDy=0;exitX=0.5;exitY=1;exitDx=0;exitDy=0;edgeStyle=orthogonalEdgeStyle;" edge="1" parent="1" source="mEMXLL7tLX4JDlvwHve8-1" target="mEMXLL7tLX4JDlvwHve8-5">
          <mxGeometry width="50" height="50" relative="1" as="geometry">
            <mxPoint x="55" y="1610" as="sourcePoint" />
            <mxPoint x="85" y="1465" as="targetPoint" />
          </mxGeometry>
        </mxCell>
        <mxCell id="mEMXLL7tLX4JDlvwHve8-9" value="" style="endArrow=none;html=1;rounded=0;fontSize=14;entryX=1;entryY=0.5;entryDx=0;entryDy=0;exitX=0.5;exitY=1;exitDx=0;exitDy=0;edgeStyle=orthogonalEdgeStyle;" edge="1" parent="1" source="mEMXLL7tLX4JDlvwHve8-1" target="mEMXLL7tLX4JDlvwHve8-2">
          <mxGeometry width="50" height="50" relative="1" as="geometry">
            <mxPoint x="55" y="1610" as="sourcePoint" />
            <mxPoint x="85" y="1465" as="targetPoint" />
          </mxGeometry>
        </mxCell>
      </root>
    </mxGraphModel>
  </diagram>
</mxfile>
